<?xml version="1.0"?>
<svg xmlns="http://www.w3.org/2000/svg" height="512px" viewBox="-88 0 512 512.00042" width="512px"><path d="m229.515625 150.070312h-44.136719c-9.75 0-17.65625 7.902344-17.65625 17.652344v35.3125h-8.828125c-4.875 0-8.824219 3.953125-8.824219 8.828125s3.949219 8.828125 8.824219 8.828125h8.828125c9.75 0 17.65625-7.90625 17.65625-17.65625v-35.3125h44.136719c4.875 0 8.828125-3.949218 8.828125-8.824218 0-4.878907-3.953125-8.828126-8.828125-8.828126zm0 0" fill="#FFDA44"/><path d="m141.242188 150.070312h-35.3125c-4.875 0-8.828126 3.949219-8.828126 8.828126 0 4.875 3.953126 8.824218 8.828126 8.824218h35.3125c4.875 0 8.828124-3.949218 8.828124-8.824218 0-4.878907-3.953124-8.828126-8.828124-8.828126zm0 0" fill="#FFDA44"/><path d="m132.414062 185.378906c0 4.875-3.953124 8.828125-8.828124 8.828125s-8.828126-3.953125-8.828126-8.828125 3.953126-8.828125 8.828126-8.828125 8.828124 3.953125 8.828124 8.828125zm0 0" fill="#FFDA44"/><path d="m220.6875 185.378906c0 4.875-3.949219 8.828125-8.824219 8.828125-4.878906 0-8.828125-3.953125-8.828125-8.828125s3.949219-8.828125 8.828125-8.828125c4.875 0 8.824219 3.953125 8.824219 8.828125zm0 0" fill="#FFDA44"/><path d="m267.378906 286.976562c15.453125-19.007812 23.902344-42.75 23.929688-67.25v-7.863281c19.503906 0 35.3125-15.808593 35.3125-35.3125 0-19.5-15.808594-35.308593-35.3125-35.308593v-17.65625c0-68.253907-55.328125-123.585938-123.585938-123.585938-68.253906 0-123.585937 55.332031-123.585937 123.585938v17.65625c-19.5 0-35.308594 15.808593-35.308594 35.308593 0 19.503907 15.808594 35.3125 35.308594 35.3125v7.863281c.035156 24.496094 8.484375 48.238282 23.933593 67.25-40.40625 12.796876-67.917968 50.226563-68.070312 92.609376v132.414062h17.65625v-132.414062c.128906-38.1875 27.328125-70.914063 64.847656-78.027344 11.964844 10.039062 25.988282 17.324218 41.082032 21.335937v30.210938c0 4.050781 2.761718 7.582031 6.691406 8.5625l28.621094 7.148437v143.183594h17.652343v-143.183594l28.621094-7.148437c3.929687-.980469 6.6875-4.511719 6.691406-8.5625v-30.210938c15.09375-4.011719 29.117188-11.296875 41.082031-21.335937 37.519532 7.113281 64.722657 39.839844 64.847657 78.027344v132.414062h17.65625v-132.414062c-.148438-42.382813-27.664063-79.816407-68.070313-92.609376zm41.585938-110.425781c0 9.75-7.902344 17.65625-17.65625 17.65625v-35.3125c9.753906.003907 17.65625 7.90625 17.65625 17.65625zm-282.484375 0c0-9.75 7.90625-17.652343 17.65625-17.652343v35.308593c-9.75 0-17.65625-7.90625-17.65625-17.65625zm167.726562 169.660157-26.484375 6.617187-26.480468-6.617187v-20.121094c3.246093.300781 6.503906.53125 9.789062.53125h33.386719c3.28125 0 6.539062-.230469 9.789062-.53125zm-9.789062-37.246094h-33.386719c-49.28125-.007813-89.226562-39.957032-89.238281-89.238282v-96.140624c0-58.503907 47.425781-105.929688 105.929687-105.929688s105.933594 47.425781 105.933594 105.929688v96.140624c-.011719 49.28125-39.957031 89.230469-89.238281 89.238282zm0 0" fill="#FFDA44"/><path d="m264.828125 388.414062h17.652344v123.585938h-17.652344zm0 0" fill="#FFDA44"/><path d="m52.964844 388.414062h17.65625v123.585938h-17.65625zm0 0" fill="#FFDA44"/><path d="m229.515625 397.242188h-17.652344v17.65625h-17.65625v17.652343h17.65625v35.3125h17.652344v-35.3125h17.65625v-17.652343h-17.65625zm0 0" fill="#FFDA44"/><path d="m123.585938 406.070312h17.65625v17.652344h-17.65625zm0 0" fill="#FFDA44"/><path d="m123.585938 441.378906h17.65625v17.65625h-17.65625zm0 0" fill="#FFDA44"/><path d="m123.585938 476.691406h17.65625v17.652344h-17.65625zm0 0" fill="#FFDA44"/><path d="m176.550781 273.65625h-17.65625c-4.875 0-8.824219 3.953125-8.824219 8.828125s3.949219 8.824219 8.824219 8.824219h17.65625c4.875 0 8.828125-3.949219 8.828125-8.824219s-3.953125-8.828125-8.828125-8.828125zm0 0" fill="#FFDA44"/></svg>
